HIERARCHY
ROOT hip
{
  OFFSET 0 0 0
  CHANNELS 6 Xposition Yposition Zposition Zrotation Yrotation Xrotation
  JOINT abdomen
  {
    OFFSET 0 20.6881 -0.73152
    CHANNELS 3 Zrotation Xrotation Yrotation
    JOINT chest
    {
      OFFSET 0 11.7043 -0.48768
      CHANNELS 3 Zrotation Xrotation Yrotation
      JOINT neck
      {
        OFFSET 0 22.1894 -2.19456
        CHANNELS 3 Zrotation Xrotation Yrotation
        JOINT head
        {
          OFFSET -0.24384 7.07133 1.2192
          CHANNELS 3 Zrotation Xrotation Yrotation
          JOINT leftEye
          {
            OFFSET 4.14528 8.04674 8.04672
            CHANNELS 3 Zrotation Xrotation Yrotation
            End Site
            {
              OFFSET 1 0 0
            }
          }
          JOINT rightEye
          {
            OFFSET -3.6576 8.04674 8.04672
            CHANNELS 3 Zrotation Xrotation Yrotation
            End Site
            {
              OFFSET 1 0 0
            }
          }
        }
      }
      JOINT rCollar
      {
        OFFSET -2.68224 19.2634 -4.8768
        CHANNELS 3 Zrotation Xrotation Yrotation
        JOINT rShldr
        {
          OFFSET -8.77824 -1.95073 1.46304
          CHANNELS 3 Zrotation Xrotation Yrotation
          JOINT rForeArm
          {
            OFFSET -28.1742 -1.7115 0.48768
            CHANNELS 3 Zrotation Xrotation Yrotation
            JOINT rHand
            {
              OFFSET -22.5879 0.773209 7.07136
              CHANNELS 3 Zrotation Xrotation Yrotation
              JOINT rThumb1
              {
                OFFSET -1.2192 -0.487915 3.41376
                CHANNELS 3 Zrotation Xrotation Yrotation
                JOINT rThumb2
                {
                  OFFSET -3.37035 -0.52449 3.41376
                  CHANNELS 3 Zrotation Xrotation Yrotation
                  End Site
                  {
                    OFFSET -1.78271 -1.18214 1.43049
                  }
                }
              }
              JOINT rIndex1
              {
                OFFSET -7.75947 0.938293 5.60832
                CHANNELS 3 Zrotation Xrotation Yrotation
                JOINT rIndex2
                {
                  OFFSET -2.54057 -0.884171 1.56538
                  CHANNELS 3 Zrotation Xrotation Yrotation
                  End Site
                  {
                    OFFSET -1.62519 -0.234802 1.16502
                  }
                }
              }
              JOINT rMid1
              {
                OFFSET -8.24714 1.18213 3.41376
                CHANNELS 3 Zrotation Xrotation Yrotation
                JOINT rMid2
                {
                  OFFSET -3.10165 -0.590103 1.0647
                  CHANNELS 3 Zrotation Xrotation Yrotation
                  End Site
                  {
                    OFFSET -2.48547 -0.328903 0.83742
                  }
                }
              }
              JOINT rRing1
              {
                OFFSET -8.82822 0.546677 1.51678
                CHANNELS 3 Zrotation Xrotation Yrotation
                JOINT rRing2
                {
                  OFFSET -2.60934 -0.819778 -0.0198488
                  CHANNELS 3 Zrotation Xrotation Yrotation
                  End Site
                  {
                    OFFSET -2.33842 -0.294052 0.168128
                  }
                }
              }
              JOINT rPinky1
              {
                OFFSET -8.27202 -0.0477905 -0.4584
                CHANNELS 3 Zrotation Xrotation Yrotation
                JOINT rPinky2
                {
                  OFFSET -1.82734 -0.647385 -0.700984
                  CHANNELS 3 Zrotation Xrotation Yrotation
                  End Site
                  {
                    OFFSET -1.69225 -0.51767 -0.607171
                  }
                }
              }
            }
          }
        }
      }
      JOINT lCollar
      {
        OFFSET 2.68224 19.2634 -4.8768
        CHANNELS 3 Zrotation Xrotation Yrotation
        JOINT lShldr
        {
          OFFSET 8.77824 -1.95073 1.46304
          CHANNELS 3 Zrotation Xrotation Yrotation
          JOINT lForeArm
          {
            OFFSET 28.1742 -1.7115 0.48768
            CHANNELS 3 Zrotation Xrotation Yrotation
            JOINT lHand
            {
              OFFSET 22.5879 0.773209 7.07136
              CHANNELS 3 Zrotation Xrotation Yrotation
              JOINT lThumb1
              {
                OFFSET 1.2192 -0.487915 3.41376
                CHANNELS 3 Zrotation Xrotation Yrotation
                JOINT lThumb2
                {
                  OFFSET 3.37035 -0.52449 3.41376
                  CHANNELS 3 Zrotation Xrotation Yrotation
                  End Site
                  {
                    OFFSET 1.78271 -1.18214 1.43049
                  }
                }
              }
              JOINT lIndex1
              {
                OFFSET 7.75947 0.938293 5.60832
                CHANNELS 3 Zrotation Xrotation Yrotation
                JOINT lIndex2
                {
                  OFFSET 2.54057 -0.884171 1.56538
                  CHANNELS 3 Zrotation Xrotation Yrotation
                  End Site
                  {
                    OFFSET 1.62519 -0.234802 1.16502
                  }
                }
              }
              JOINT lMid1
              {
                OFFSET 8.24714 1.18213 3.41376
                CHANNELS 3 Zrotation Xrotation Yrotation
                JOINT lMid2
                {
                  OFFSET 3.10165 -0.590103 1.0647
                  CHANNELS 3 Zrotation Xrotation Yrotation
                  End Site
                  {
                    OFFSET 2.48547 -0.328903 0.83742
                  }
                }
              }
              JOINT lRing1
              {
                OFFSET 8.82822 0.546677 1.51678
                CHANNELS 3 Zrotation Xrotation Yrotation
                JOINT lRing2
                {
                  OFFSET 2.60934 -0.819778 -0.0198488
                  CHANNELS 3 Zrotation Xrotation Yrotation
                  End Site
                  {
                    OFFSET 2.33842 -0.294052 0.168128
                  }
                }
              }
              JOINT lPinky1
              {
                OFFSET 8.27202 -0.0477905 -0.4584
                CHANNELS 3 Zrotation Xrotation Yrotation
                JOINT lPinky2
                {
                  OFFSET 1.82734 -0.647385 -0.700984
                  CHANNELS 3 Zrotation Xrotation Yrotation
                  End Site
                  {
                    OFFSET 1.69225 -0.51767 -0.607171
                  }
                }
              }
            }
          }
        }
      }
    }
  }
  JOINT rButtock
  {
    OFFSET -8.77824 4.35084 1.2192
    CHANNELS 3 Zrotation Xrotation Yrotation
    JOINT rThigh
    {
      OFFSET 0 -1.70687 -2.19456
      CHANNELS 3 Zrotation Xrotation Yrotation
      JOINT rShin
      {
        OFFSET 0 -36.8199 0.73152
        CHANNELS 3 Zrotation Xrotation Yrotation
        JOINT rFoot
        {
          OFFSET 0.73152 -45.1104 -5.12064
          CHANNELS 3 Zrotation Xrotation Yrotation
          End Site
          {
            OFFSET -1.1221 -3.69964 12.103
          }
        }
      }
    }
  }
  JOINT lButtock
  {
    OFFSET 8.77824 4.35084 1.2192
    CHANNELS 3 Zrotation Xrotation Yrotation
    JOINT lThigh
    {
      OFFSET 0 -1.70687 -2.19456
      CHANNELS 3 Zrotation Xrotation Yrotation
      JOINT lShin
      {
        OFFSET 0 -36.8199 0.73152
        CHANNELS 3 Zrotation Xrotation Yrotation
        JOINT lFoot
        {
          OFFSET -0.73152 -45.1104 -5.12064
          CHANNELS 3 Zrotation Xrotation Yrotation
          End Site
          {
            OFFSET 1.1221 -3.69964 12.103
          }
        }
      }
    }
  }
}
MOTION
Frames:	7
Frame Time:	0.00833333
63.6514 85.3166 -92.046 0.0 0.0 0.0 1.08608 -0.00408977 0.0298997 0.299451 -0.00345794 0.0518751 -3.5721e-14 0.0 4.96962e-16 -1.06999e-13 3.18055e-15 1.46448e-15 -0.0 0.0 0.0 -0.0 0.0 0.0 -1.77934e-14 -3.90193e-17 3.97569e-16 -3.73046e-13 -8.07563e-16 4.57205e-15 -6.45489e-12 1.89323e-12 1.36764e-13 -7.37657e-11 -2.08217e-12 8.77833e-13 -1.74027e-10 -4.10678e-13 2.24865e-12 -3.00543e-10 -7.09264e-13 3.88425e-12 -1.74021e-10 -4.09099e-13 2.23593e-12 7.73091 5.47488 0.417314 -1.74028e-10 -4.10789e-13 2.25183e-12 2.90554 0.965183 0.102902 -1.74021e-10 -4.1049e-13 2.24786e-12 10.2786 0.731801 0.0259123 -1.7403e-10 -4.08701e-13 2.25501e-12 2.22167 -0.733487 -0.20892 -1.78897e-14 -4.0184e-17 9.93923e-17 -3.76992e-13 -7.0817e-16 2.98177e-15 -6.44162e-12 -1.95584e-12 1.81292e-13 -7.37905e-11 1.78822e-12 8.55569e-13 -1.74044e-10 -3.64795e-13 2.24547e-12 -3.00555e-10 -6.2975e-13 3.88266e-12 -1.7405e-10 -3.63378e-13 2.25183e-12 -7.73091 5.47488 -0.417314 -1.74045e-10 -3.64472e-13 2.24547e-12 -2.90554 0.965183 -0.102902 -1.74048e-10 -3.6477e-13 2.24706e-12 -10.2786 0.731801 -0.0259123 -1.74038e-10 -3.63776e-13 2.23911e-12 -2.22167 -0.733487 0.20892 -2.03217e-16 0.0 -3.88251e-19 1.33846 -5.65669 -0.117781 0.000450334 4.68998 0.0313209 -0.524391 0.964896 0.0795188 2.03217e-16 0.0 3.88251e-19 0.313254 -1.92005 0.011868 0.00934991 -2.07854 0.0772701 0.510096 3.99665 -0.139994
61.1032 84.1095 -92.7617 -6.3815 -12.7077 4.6675 3.2024 0.682535 1.55435 0.319248 -0.339496 0.489954 -2.74945 -0.533721 -0.745696 1.97742 0.0357284 -0.619408 -0.0 0.0 0.0 -0.0 0.0 0.0 6.97227e-14 4.17551e-14 3.45928e-14 21.7036 1.19263 0.224768 -6.64303 -3.73246 9.48433 0.059668 -5.42459 -0.750103 -1.05576e-09 1.13839e-09 4.31709e-10 -1.82914e-09 1.96569e-09 7.33699e-10 -1.05575e-09 1.13839e-09 4.31697e-10 7.73091 5.47488 0.417314 -1.05576e-09 1.13839e-09 4.31709e-10 2.90554 0.965183 0.102902 -1.05575e-09 1.13839e-09 4.31707e-10 10.2786 0.731801 0.0259123 -1.05576e-09 1.13839e-09 4.31712e-10 2.22167 -0.733487 -0.20892 6.96567e-14 4.17578e-14 3.43206e-14 -23.162 3.22149 0.004231 3.65064 -1.55969 -5.805 -0.0554077 5.22674 -0.723585 -1.3376e-09 -1.27e-09 -7.24293e-10 -2.3221e-09 -2.19394e-09 -1.23159e-09 -1.33761e-09 -1.27e-09 -7.24285e-10 -7.73091 5.47488 -0.417314 -1.3376e-09 -1.27e-09 -7.24294e-10 -2.90554 0.965183 -0.102902 -1.33761e-09 -1.27e-09 -7.24292e-10 -10.2786 0.731801 -0.0259123 -1.3376e-09 -1.27e-09 -7.24301e-10 -2.22167 -0.733487 0.20892 -2.03217e-16 0.0 -3.88251e-19 2.59851 -2.84824 1.00529 0.0326693 11.1666 0.19769 -0.531316 2.88715 0.821384 2.03217e-16 0.0 3.88251e-19 2.69239 -11.0341 1.43071 0.00119092 7.0109 -0.0546068 0.555478 3.49392 0.998531
61.4318 84.1959 -91.5378 -5.5813 -12.6694 4.1994 5.41895 1.39686 3.1774 0.351011 -0.693518 0.956959 -5.6518 -1.10165 -1.53727 4.03455 0.0545058 -1.28367 -0.0 0.0 0.0 -0.0 0.0 0.0 1.67062e-13 8.84135e-14 6.47324e-14 44.621 2.5235 0.493971 -12.3573 -7.3545 19.6627 -0.034316 -11.1402 -1.56355 -2.03316e-09 2.37202e-09 8.7472e-10 -3.52297e-09 4.09525e-09 1.48547e-09 -2.03315e-09 2.37202e-09 8.7471e-10 7.73091 5.47488 0.417314 -2.03316e-09 2.37202e-09 8.74718e-10 2.90554 0.965183 0.102902 -2.03315e-09 2.37202e-09 8.74718e-10 10.2786 0.731801 0.0259123 -2.03316e-09 2.37202e-09 8.74721e-10 2.22167 -0.733487 -0.20892 1.67029e-13 8.84207e-14 6.4487e-14 -47.6566 6.60886 0.0053686 7.16329 -3.15196 -11.9478 0.0319893 10.7632 -1.51075 -2.59974e-09 -2.64055e-09 -1.53231e-09 -4.51528e-09 -4.56185e-09 -2.60619e-09 -2.59975e-09 -2.64055e-09 -1.5323e-09 -7.73091 5.47488 -0.417314 -2.59974e-09 -2.64055e-09 -1.53231e-09 -2.90554 0.965183 -0.102902 -2.59975e-09 -2.64055e-09 -1.53231e-09 -10.2786 0.731801 -0.0259123 -2.59974e-09 -2.64055e-09 -1.53232e-09 -2.22167 -0.733487 0.20892 -2.03217e-16 0.0 -3.88251e-19 3.8358 0.215331 2.18179 0.0262729 17.8559 0.38572 -0.589695 4.73329 1.61667 2.03217e-16 0.0 3.88251e-19 5.76108 -20.6804 3.07304 0.0384157 16.5847 -0.203218 0.625098 3.0071 2.21511
61.6565 84.173 -90.4366 -5.5682 -12.5592 4.029 7.32552 2.0499 4.60586 0.374259 -1.01132 1.3663 -8.29004 -1.60008 -2.23787 5.93458 0.107135 -1.85823 -0.0 0.0 0.0 -0.0 0.0 0.0 2.44755e-13 1.25343e-13 1.02983e-13 65.0827 3.57768 0.675476 -16.3451 -9.97166 28.8682 -0.26209 -16.2624 -2.33365 -2.81923e-09 3.41599e-09 1.29063e-09 -4.88635e-09 5.89848e-09 2.19333e-09 -2.81921e-09 3.41598e-09 1.29062e-09 7.73091 5.47488 0.417314 -2.81923e-09 3.41599e-09 1.29062e-09 2.90554 0.965183 0.102902 -2.81922e-09 3.41599e-09 1.29063e-09 10.2786 0.731801 0.0259123 -2.81922e-09 3.41599e-09 1.29063e-09 2.22167 -0.733487 -0.20892 2.4475e-13 1.25354e-13 1.02763e-13 -69.4874 9.66447 0.0128554 10.0176 -4.48731 -17.4638 0.24273 15.67 -2.24522 -3.66471e-09 -3.80926e-09 -2.17737e-09 -6.36518e-09 -6.58056e-09 -3.70255e-09 -3.66472e-09 -3.80927e-09 -2.17736e-09 -7.73091 5.47488 -0.417314 -3.66471e-09 -3.80927e-09 -2.17737e-09 -2.90554 0.965183 -0.102902 -3.66473e-09 -3.80927e-09 -2.17737e-09 -10.2786 0.731801 -0.0259123 -3.66471e-09 -3.80927e-09 -2.17738e-09 -2.22167 -0.733487 0.20892 -2.03217e-16 0.0 -3.88251e-19 4.78868 2.76292 3.25035 -0.0257153 24.119 0.569094 -0.695392 6.72709 2.31798 2.03217e-16 0.0 3.88251e-19 8.97454 -29.1866 4.79959 0.119597 25.1894 -0.350351 0.706239 2.48598 3.27241
61.7702 84.1128 -89.4205 -6.0468 -12.3055 3.9372 8.53321 2.55535 5.5455 0.365208 -1.23882 1.63129 -10.2378 -1.92584 -2.71023 7.442 0.244389 -2.2085 -0.0 0.0 0.0 -0.0 0.0 0.0 2.73333e-13 1.37951e-13 1.61513e-13 79.4324 3.94048 0.636069 -18.5369 -11.2758 35.236 -0.512299 -19.9113 -2.91799 -3.12697e-09 3.98581e-09 1.63878e-09 -5.42361e-09 6.88587e-09 2.79139e-09 -3.12695e-09 3.98581e-09 1.63877e-09 7.73091 5.47488 0.417314 -3.12697e-09 3.98582e-09 1.63877e-09 2.90554 0.965183 0.102902 -3.12696e-09 3.98582e-09 1.63878e-09 10.2786 0.731801 0.0259123 -3.12697e-09 3.98582e-09 1.63878e-09 2.22167 -0.733487 -0.20892 2.73343e-13 1.37962e-13 1.61314e-13 -84.6595 11.8907 0.0363719 11.8743 -5.36091 -21.3668 0.464918 19.013 -2.77579 -4.23678e-09 -4.47338e-09 -2.41501e-09 -7.35689e-09 -7.72628e-09 -4.1033e-09 -4.23679e-09 -4.47338e-09 -2.415e-09 -7.73091 5.47488 -0.417314 -4.23678e-09 -4.47338e-09 -2.41502e-09 -2.90554 0.965183 -0.102902 -4.23679e-09 -4.47339e-09 -2.41502e-09 -10.2786 0.731801 -0.0259123 -4.23678e-09 -4.47339e-09 -2.41503e-09 -2.22167 -0.733487 0.20892 -2.03217e-16 0.0 -3.88251e-19 5.27799 4.0285 4.03902 -0.106937 29.3173 0.710355 -0.833421 9.09356 2.77793 2.03217e-16 0.0 3.88251e-19 11.411 -34.9139 6.23831 0.210995 31.372 -0.460955 0.780887 1.88078 3.93342
61.9065 84.1227 -88.3803 -6.337 -12.0627 3.7811 8.91684 2.86805 5.79705 0.268256 -1.35279 1.69408 -11.2677 -2.04089 -2.86631 8.51294 0.577352 -2.23467 -0.0 0.0 0.0 -0.0 0.0 0.0 2.23966e-13 1.11738e-13 2.60417e-13 85.2473 3.31755 0.273713 -19.1809 -11.5437 37.4447 -0.641224 -21.4821 -3.18056 -2.68778e-09 3.87175e-09 1.93495e-09 -4.67184e-09 6.69801e-09 3.31125e-09 -2.68776e-09 3.87175e-09 1.93494e-09 7.73091 5.47488 0.417314 -2.68778e-09 3.87176e-09 1.93494e-09 2.90554 0.965183 0.102902 -2.68777e-09 3.87176e-09 1.93495e-09 10.2786 0.731801 0.0259123 -2.68778e-09 3.87176e-09 1.93495e-09 2.22167 -0.733487 -0.20892 2.23976e-13 1.11745e-13 2.60236e-13 -90.5147 12.9669 0.0928774 12.6024 -5.7076 -22.9698 0.560266 20.1588 -2.96553 -4.08035e-09 -4.4062e-09 -2.009e-09 -7.07949e-09 -7.60632e-09 -3.4042e-09 -4.08036e-09 -4.4062e-09 -2.00899e-09 -7.73091 5.47488 -0.417314 -4.08035e-09 -4.4062e-09 -2.00901e-09 -2.90554 0.965183 -0.102902 -4.08037e-09 -4.4062e-09 -2.009e-09 -10.2786 0.731801 -0.0259123 -4.08035e-09 -4.40621e-09 -2.00902e-09 -2.22167 -0.733487 0.20892 -2.03217e-16 0.0 -3.88251e-19 5.3268 3.5002 4.43927 -0.183568 33.0145 0.767197 -0.991588 12.2966 2.97987 2.03217e-16 0.0 3.88251e-19 12.2148 -36.8635 6.86884 0.263559 34.2552 -0.490751 0.825848 1.13336 4.00826
62.0662 84.1324 -87.3054 -6.5079 -12.0745 3.6307 8.71571 3.04378 5.5566 0.10918 -1.38511 1.61239 -11.6364 -2.00416 -2.79617 9.26317 1.04656 -2.02989 -0.0 0.0 0.0 -0.0 0.0 0.0 1.19361e-13 5.80225e-14 3.8759e-13 84.9428 1.99104 -0.317411 -18.8894 -11.2725 36.6539 -0.642947 -21.5721 -3.19438 -1.71875e-09 3.27015e-09 2.19195e-09 -3.00563e-09 5.67226e-09 3.77167e-09 -1.71873e-09 3.27015e-09 2.19193e-09 7.73091 5.47488 0.417314 -1.71875e-09 3.27016e-09 2.19194e-09 2.90554 0.965183 0.102902 -1.71874e-09 3.27016e-09 2.19194e-09 10.2786 0.731801 0.0259123 -1.71875e-09 3.27016e-09 2.19194e-09 2.22167 -0.733487 -0.20892 1.19359e-13 5.80232e-14 3.87425e-13 -89.7144 13.221 0.172367 12.5882 -5.71555 -22.9228 0.532325 19.738 -2.89718 -3.4054e-09 -3.81785e-09 -1.14673e-09 -5.89881e-09 -6.58439e-09 -1.92549e-09 -3.40541e-09 -3.81785e-09 -1.14671e-09 -7.73091 5.47488 -0.417314 -3.4054e-09 -3.81785e-09 -1.14673e-09 -2.90554 0.965183 -0.102902 -3.40541e-09 -3.81785e-09 -1.14673e-09 -10.2786 0.731801 -0.0259123 -3.4054e-09 -3.81785e-09 -1.14674e-09 -2.22167 -0.733487 0.20892 -2.03217e-16 0.0 -3.88251e-19 5.08013 1.69286 4.56241 -0.240467 35.6402 0.754406 -1.14522 16.0836 2.99906 2.03217e-16 0.0 3.88251e-19 11.6642 -36.131 6.79085 0.272916 34.7775 -0.452478 0.834568 0.284588 3.66682
